<svg xmlns="http://www.w3.org/2000/svg" version="1.1" xmlns:xlink="http://www.w3.org/1999/xlink" width="512"
    height="512" x="0" y="0" viewBox="0 0 512 512" style="enable-background:new 0 0 512 512" xml:space="preserve"
    class="">
    <g>
        <circle cx="256.005" cy="256.005" r="247.556" style="" fill="#a5eb78" data-original="#a5eb78"></circle>
        <path
            d="M53.508 289.795c0-136.719 110.832-247.551 247.551-247.551 45.567 0 88.25 12.325 124.92 33.802C381.637 34.146 321.823 8.449 256 8.449 119.281 8.449 8.449 119.281 8.449 256c0 91.152 49.273 170.784 122.631 213.748-47.762-45.13-77.572-109.057-77.572-179.953z"
            style="opacity:0.1;enable-background:new ;" fill="#000000" opacity="1" data-original="#000000"></path>
        <path
            d="M391.375 234.761 366.4 94.714l-35.529 35.529c-22.076-13.136-47.765-20.559-74.872-20.559-36.924 0-72.186 13.795-99.289 38.842-26.941 24.899-43.46 58.683-46.514 95.13l67.354 5.644c1.64-19.572 10.53-37.733 25.035-51.137 14.577-13.473 33.547-20.892 53.414-20.892a78.776 78.776 0 0 1 24.075 3.767l-28.749 28.749 140.05 24.974zM110.197 277.238l24.975 140.049 35.529-35.529c22.076 13.136 47.765 20.559 74.872 20.559 36.924 0 72.186-13.795 99.289-38.842 26.941-24.899 43.46-58.683 46.514-95.13l-67.354-5.644c-1.64 19.572-10.53 37.733-25.035 51.137-14.577 13.473-33.547 20.892-53.414 20.892a78.806 78.806 0 0 1-24.075-3.767l28.749-28.749-140.05-24.976z"
            style="" fill="#ffffff" data-original="#ffffff"></path>
        <path
            d="M256 512c-68.38 0-132.667-26.629-181.019-74.981C26.629 388.667 0 324.38 0 256c0-75.008 32.755-145.994 89.866-194.758a8.45 8.45 0 0 1 10.973 12.849C47.493 119.642 16.897 185.943 16.897 256c0 131.841 107.261 239.103 239.103 239.103 55.438 0 109.469-19.406 152.142-54.641 3.597-2.972 8.923-2.463 11.895 1.135a8.45 8.45 0 0 1-1.135 11.895C373.208 491.221 315.356 512 256 512zM438.06 432.164a8.449 8.449 0 0 1-6.211-14.174c40.789-44.256 63.252-101.784 63.252-161.989C495.103 124.159 387.841 16.897 256 16.897c-45.761 0-90.232 12.968-128.607 37.501a8.448 8.448 0 0 1-9.101-14.235C159.389 13.887 207.008 0 256 0c68.38 0 132.667 26.629 181.019 74.981S512 187.62 512 256c0 64.461-24.053 126.056-67.725 173.441a8.427 8.427 0 0 1-6.215 2.723z"
            fill="#000000" opacity="1" data-original="#000000"></path>
        <path
            d="M177.56 257.748c-.237 0-.474-.01-.714-.03l-67.354-5.644a8.448 8.448 0 0 1-7.714-9.125c3.231-38.557 20.703-74.295 49.198-100.63 28.669-26.496 65.968-41.087 105.023-41.087 25.686 0 50.937 6.375 73.441 18.491l30.985-30.985a8.448 8.448 0 0 1 14.291 4.49l24.975 140.049a8.446 8.446 0 0 1-2.343 7.457 8.438 8.438 0 0 1-7.457 2.343l-140.049-24.975a8.447 8.447 0 0 1-4.49-14.291l17.735-17.735a70.379 70.379 0 0 0-7.088-.357c-17.736 0-34.67 6.623-47.681 18.648-12.949 11.967-20.886 28.174-22.349 45.637a8.449 8.449 0 0 1-8.409 7.744zm-57.98-21.785 50.667 4.246c3.373-18.447 12.638-35.343 26.605-48.251 16.143-14.919 37.149-23.136 59.149-23.136a87.243 87.243 0 0 1 26.653 4.169 8.448 8.448 0 0 1 3.397 14.019l-17.299 17.299 112.181 20.005-20.006-112.18-24.08 24.08a8.447 8.447 0 0 1-10.295 1.286c-21.296-12.673-45.692-19.371-70.55-19.371-34.791 0-68.017 12.997-93.554 36.598-23.306 21.541-38.334 50.13-42.868 81.236zM135.171 425.735a8.45 8.45 0 0 1-8.317-6.965L101.88 278.721a8.446 8.446 0 0 1 2.343-7.457 8.435 8.435 0 0 1 7.457-2.343l140.049 24.975a8.447 8.447 0 0 1 4.49 14.291l-17.735 17.735c2.351.238 4.717.357 7.088.357 17.736 0 34.67-6.623 47.681-18.648 12.949-11.967 20.886-28.174 22.349-45.637.39-4.649 4.477-8.101 9.125-7.713l67.354 5.644a8.448 8.448 0 0 1 7.714 9.125c-3.231 38.557-20.702 74.295-49.198 100.63-28.669 26.496-65.968 41.087-105.023 41.087a154.975 154.975 0 0 1-73.441-18.491l-30.985 30.985a8.454 8.454 0 0 1-5.977 2.474zm-14.529-138.053 20.005 112.181 24.08-24.08a8.45 8.45 0 0 1 10.295-1.286c21.296 12.673 45.692 19.371 70.551 19.371 34.791 0 68.017-12.997 93.554-36.598 23.305-21.537 38.332-50.127 42.866-81.234l-50.667-4.246c-3.373 18.447-12.638 35.343-26.605 48.251-16.142 14.919-37.149 23.136-59.149 23.136a87.243 87.243 0 0 1-26.653-4.169 8.448 8.448 0 0 1-3.397-14.019l17.299-17.299-112.179-20.008z"
            fill="#000000" opacity="1" data-original="#000000"></path>
    </g>
</svg>